<mxfile host="app.diagrams.net" modified="2023-02-28T21:37:13.469Z" agent="5.0 (Windows NT 10.0; Win64; x64) AppleWebKit/537.36 (KHTML, like Gecko) Chrome/108.0.0.0 YaBrowser/23.1.3.949 Yowser/2.5 Safari/537.36" etag="-owv1SQY5wg5sONETQ6x" version="20.8.23" type="github">
  <diagram name="Страница 1" id="swA_8_GcXAzS3ZgrSIn1">
    <mxGraphModel dx="1002" dy="569" grid="1" gridSize="10" guides="1" tooltips="1" connect="1" arrows="1" fold="1" page="1" pageScale="1" pageWidth="827" pageHeight="1169" math="0" shadow="0">
      <root>
        <mxCell id="0" />
        <mxCell id="1" parent="0" />
        <mxCell id="aAJ6bCT32WDWyiOc5iHI-14" style="edgeStyle=orthogonalEdgeStyle;rounded=0;orthogonalLoop=1;jettySize=auto;html=1;entryX=0;entryY=0.75;entryDx=0;entryDy=0;" edge="1" parent="1" source="aAJ6bCT32WDWyiOc5iHI-1" target="aAJ6bCT32WDWyiOc5iHI-5">
          <mxGeometry relative="1" as="geometry" />
        </mxCell>
        <mxCell id="aAJ6bCT32WDWyiOc5iHI-15" style="edgeStyle=orthogonalEdgeStyle;rounded=0;orthogonalLoop=1;jettySize=auto;html=1;entryX=0;entryY=0.5;entryDx=0;entryDy=0;" edge="1" parent="1" source="aAJ6bCT32WDWyiOc5iHI-1" target="aAJ6bCT32WDWyiOc5iHI-6">
          <mxGeometry relative="1" as="geometry" />
        </mxCell>
        <mxCell id="aAJ6bCT32WDWyiOc5iHI-16" style="edgeStyle=orthogonalEdgeStyle;rounded=0;orthogonalLoop=1;jettySize=auto;html=1;entryX=0;entryY=0.5;entryDx=0;entryDy=0;" edge="1" parent="1" source="aAJ6bCT32WDWyiOc5iHI-1" target="aAJ6bCT32WDWyiOc5iHI-7">
          <mxGeometry relative="1" as="geometry" />
        </mxCell>
        <mxCell id="aAJ6bCT32WDWyiOc5iHI-17" style="edgeStyle=orthogonalEdgeStyle;rounded=0;orthogonalLoop=1;jettySize=auto;html=1;entryX=0;entryY=0.5;entryDx=0;entryDy=0;" edge="1" parent="1" source="aAJ6bCT32WDWyiOc5iHI-1" target="aAJ6bCT32WDWyiOc5iHI-8">
          <mxGeometry relative="1" as="geometry" />
        </mxCell>
        <mxCell id="aAJ6bCT32WDWyiOc5iHI-1" value="DWH" style="shape=cylinder3;whiteSpace=wrap;html=1;boundedLbl=1;backgroundOutline=1;size=15;fillColor=#dae8fc;strokeColor=#6c8ebf;" vertex="1" parent="1">
          <mxGeometry x="390" y="120" width="160" height="230" as="geometry" />
        </mxCell>
        <mxCell id="aAJ6bCT32WDWyiOc5iHI-11" style="edgeStyle=orthogonalEdgeStyle;rounded=0;orthogonalLoop=1;jettySize=auto;html=1;entryX=0.011;entryY=0.342;entryDx=0;entryDy=0;entryPerimeter=0;" edge="1" parent="1" source="aAJ6bCT32WDWyiOc5iHI-2" target="aAJ6bCT32WDWyiOc5iHI-1">
          <mxGeometry relative="1" as="geometry" />
        </mxCell>
        <mxCell id="aAJ6bCT32WDWyiOc5iHI-2" value="CRM&lt;br&gt;(Communications, manager activities)&amp;nbsp;" style="rounded=0;whiteSpace=wrap;html=1;fillColor=#f8cecc;strokeColor=#b85450;" vertex="1" parent="1">
          <mxGeometry x="35" y="60" width="250" height="60" as="geometry" />
        </mxCell>
        <mxCell id="aAJ6bCT32WDWyiOc5iHI-12" style="edgeStyle=orthogonalEdgeStyle;rounded=0;orthogonalLoop=1;jettySize=auto;html=1;entryX=0;entryY=0.5;entryDx=0;entryDy=0;entryPerimeter=0;" edge="1" parent="1" source="aAJ6bCT32WDWyiOc5iHI-3" target="aAJ6bCT32WDWyiOc5iHI-1">
          <mxGeometry relative="1" as="geometry">
            <mxPoint x="380" y="240" as="targetPoint" />
            <Array as="points">
              <mxPoint x="390" y="240" />
            </Array>
          </mxGeometry>
        </mxCell>
        <mxCell id="aAJ6bCT32WDWyiOc5iHI-3" value="ERP&lt;br&gt;Orders, personal, warehouses...." style="rounded=0;whiteSpace=wrap;html=1;fillColor=#d5e8d4;strokeColor=#82b366;" vertex="1" parent="1">
          <mxGeometry x="40" y="210" width="250" height="60" as="geometry" />
        </mxCell>
        <mxCell id="aAJ6bCT32WDWyiOc5iHI-13" style="edgeStyle=orthogonalEdgeStyle;rounded=0;orthogonalLoop=1;jettySize=auto;html=1;entryX=0;entryY=0;entryDx=0;entryDy=165;entryPerimeter=0;" edge="1" parent="1" source="aAJ6bCT32WDWyiOc5iHI-4" target="aAJ6bCT32WDWyiOc5iHI-1">
          <mxGeometry relative="1" as="geometry" />
        </mxCell>
        <mxCell id="aAJ6bCT32WDWyiOc5iHI-4" value="Reports,&lt;br&gt;excel files, blancs&amp;nbsp;" style="rounded=0;whiteSpace=wrap;html=1;fillColor=#e1d5e7;strokeColor=#9673a6;" vertex="1" parent="1">
          <mxGeometry x="40" y="360" width="250" height="60" as="geometry" />
        </mxCell>
        <mxCell id="aAJ6bCT32WDWyiOc5iHI-5" value="Power BI&lt;br&gt;Dashboards, analytics&amp;nbsp;" style="rounded=1;whiteSpace=wrap;html=1;fillColor=#1ba1e2;fontColor=#ffffff;strokeColor=#006EAF;" vertex="1" parent="1">
          <mxGeometry x="640" y="30" width="120" height="60" as="geometry" />
        </mxCell>
        <mxCell id="aAJ6bCT32WDWyiOc5iHI-6" value="Excel" style="rounded=1;whiteSpace=wrap;html=1;fillColor=#e1d5e7;strokeColor=#9673a6;" vertex="1" parent="1">
          <mxGeometry x="640" y="140" width="120" height="60" as="geometry" />
        </mxCell>
        <mxCell id="aAJ6bCT32WDWyiOc5iHI-7" value="CRM&lt;br&gt;(views, tasks)" style="rounded=1;whiteSpace=wrap;html=1;fillColor=#f8cecc;strokeColor=#b85450;" vertex="1" parent="1">
          <mxGeometry x="640" y="270" width="120" height="60" as="geometry" />
        </mxCell>
        <mxCell id="aAJ6bCT32WDWyiOc5iHI-8" value="ERP&lt;br&gt;(planing....)" style="rounded=1;whiteSpace=wrap;html=1;fillColor=#d5e8d4;strokeColor=#82b366;" vertex="1" parent="1">
          <mxGeometry x="640" y="380" width="120" height="60" as="geometry" />
        </mxCell>
      </root>
    </mxGraphModel>
  </diagram>
</mxfile>
